<svg xmlns="http://www.w3.org/2000/svg" viewBox="0 0 48 48" width="48px" height="48px">
  <path fill="#4285F4" d="M23.49 12.27c-2.69 0-5.14 1.02-7.04 2.69l-5.25-5.25C14.14 6.19 18.57 4 23.49 4c4.62 0 8.51 1.63 11.32 4.34l-4.74 4.74c-1.35-1.29-3.07-2.04-6.58-2.04z"/>
  <path fill="#34A853" d="M9.69 24.5c0-1.4.23-2.75.63-4.02l-5.6-4.35C3.68 18.78 3 21.06 3 23.5c0 2.43.68 4.72 1.88 6.37l5.6-4.35c-.4-1.27-.63-2.62-.63-4.02z"/>
  <path fill="#FBBC05" d="M24 44c5.4 0 9.91-1.8 13.21-4.88l-5.67-4.64c-2.02 1.36-4.58 2.16-7.54 2.16-5.79 0-10.69-3.9-12.45-9.13l-5.6 4.35C8.18 38.52 15.51 44 24 44z"/>
  <path fill="#EA4335" d="M45 23.5c0-1.47-.12-2.88-.36-4.25H24v8.09h11.81c-.53 2.75-2.08 5.06-4.41 6.63l5.67 4.64C41.91 34.93 45 29.84 45 23.5z"/>
</svg>
